<?xml version="1.0" encoding="UTF-8"?>
<!DOCTYPE svg PUBLIC "-//W3C//DTD SVG 1.1//EN" "http://www.w3.org/Graphics/SVG/1.1/DTD/svg11.dtd">
<svg xmlns="http://www.w3.org/2000/svg">
<symbol id="back-arrow" viewBox="0 0 23 17">
	<g fill="#FFDC42">
		<path d="M21.18 7.608H.893a.892.892 0 0 0 0 1.784H21.18a.892.892 0 1 0 0-1.784z"/>
		<path d="M2.153 8.5L9.13 1.522A.892.892 0 1 0 7.87.262L.26 7.87a.892.892 0 0 0 0 1.26L7.87 16.74a.888.888 0 0 0 1.26 0 .892.892 0 0 0 0-1.261L2.154 8.5z"/>
	</g>
</symbol>
<symbol id="burger" viewBox="0 0 22 17">
	<g fill="#FFDC42">
		<path d="M0 0h22v3H0zM0 7h13v3H0zM0 14h22v3H0z"/>
	</g>
</symbol>
<symbol id="phone" viewBox="0 0 27 27">
	<path fill="#FFDC42" fill-rule="evenodd" d="M26 13.5C26 20.404 20.404 26 13.5 26S1 20.404 1 13.5 6.596 1 13.5 1 26 6.596 26 13.5zm1 0C27 20.956 20.956 27 13.5 27S0 20.956 0 13.5 6.044 0 13.5 0 27 6.044 27 13.5zm-10.876 2.746c.552-.548 1.245-.548 1.8 0h.001c.676.673 1.351 1.345 2.023 2.02.563.566.56 1.26-.007 1.833-.13.132-.265.262-.399.392-.256.25-.513.5-.75.765-.528.59-1.186.782-1.943.739-1.1-.06-2.112-.425-3.088-.899a16.835 16.835 0 0 1-5.575-4.361c-1.15-1.366-2.098-2.855-2.72-4.532-.305-.81-.52-1.642-.454-2.522.043-.542.244-1.005.644-1.384.26-.246.51-.498.76-.751.166-.169.333-.338.503-.505.552-.544 1.245-.544 1.8-.003.23.224.455.451.68.678H9.4c.113.114.225.228.339.34.164.167.329.332.493.496l.494.495c.58.584.58 1.263.003 1.843l-.178.18c-.354.357-.707.714-1.067 1.062-.11.11-.12.198-.064.333.28.665.68 1.255 1.129 1.807.905 1.111 1.928 2.098 3.148 2.866.158.098.327.18.495.264.11.054.222.109.33.168.137.077.233.052.346-.064.414-.425.835-.842 1.256-1.26zm1.125-2.82l1.305-.222a5.834 5.834 0 0 0-1.63-3.148 5.803 5.803 0 0 0-3.326-1.66l-.184 1.313c.98.138 1.872.58 2.575 1.284a4.502 4.502 0 0 1 1.26 2.434zM13.772 5a9.625 9.625 0 0 1 5.518 2.752A9.695 9.695 0 0 1 22 12.977l-1.305.223a8.34 8.34 0 0 0-2.339-4.51 8.346 8.346 0 0 0-4.769-2.378L13.771 5z" clip-rule="evenodd"/>
</symbol>
</svg>