<svg width="94" height="17" viewBox="0 0 94 17" fill="none" xmlns="http://www.w3.org/2000/svg">
<path fill-rule="evenodd" clip-rule="evenodd" d="M56.4494 0.144538L56.9132 0.105809C57.5759 0.105809 58.1855 -0.333129 58.4042 0.577021C58.592 1.43814 58.1362 2.30993 57.3108 2.66843C56.5784 2.87309 55.8251 2.99864 55.0644 3.04282C53.6729 3.17837 53.0765 3.68831 52.8976 5.0955C53.4296 4.82423 53.9893 4.60788 54.5675 4.45C57.218 3.94651 59.1662 5.4247 59.418 8.06478C59.6698 10.7049 57.9205 12.835 55.3958 12.9189C52.4337 13.0093 50.85 11.6279 50.6578 8.71028C50.597 7.76879 50.597 6.8245 50.6578 5.883C50.8434 2.92663 52.1885 1.57109 55.1903 1.36453C56.0253 1.29998 56.6482 1.23543 56.4494 0.144538ZM57.0458 8.71673C57.0458 6.81252 56.2837 5.83136 55.0048 5.83136C53.7259 5.83136 52.9241 6.87707 52.9373 8.41335C52.9506 9.94963 53.7325 10.9566 54.9253 10.9631C55.758 11.0411 56.5317 10.536 56.7741 9.75598C56.8877 9.41568 56.9785 9.06853 57.0458 8.71673Z" fill="#333333"/>
<path fill-rule="evenodd" clip-rule="evenodd" d="M68.2721 4.34309H70.3405C70.3791 4.61317 70.4176 4.87007 70.4497 5.14015C71.3464 4.14447 72.7312 3.78457 73.9821 4.22212C75.233 4.65967 76.1147 5.81239 76.231 7.16242C76.3553 8.27829 76.3097 9.40717 76.0961 10.5087C75.8443 11.7308 74.9543 12.7101 73.7833 13.0538C72.6122 13.3975 71.3518 13.0493 70.5075 12.1489V16.154H68.2721V4.34309ZM74.1562 8.69724C74.1356 8.27589 74.0688 7.85827 73.9571 7.45226C73.8056 6.63735 73.0805 6.06977 72.2741 6.13481C71.8627 6.08901 71.4508 6.2169 71.1333 6.48904C70.8158 6.76118 70.6201 7.15412 70.591 7.57741C70.4509 8.44718 70.5125 9.33857 70.7709 10.1794C71.1002 10.7343 71.6633 11.0997 72.2933 11.1674C72.9072 11.1452 73.4682 10.8054 73.7836 10.265C74.0121 9.76363 74.1326 9.21769 74.1369 8.6643L74.1562 8.69724Z" fill="#333333"/>
<path fill-rule="evenodd" clip-rule="evenodd" d="M80.4284 10.2244C80.8844 8.45803 81.3655 6.91655 81.6778 5.31553C81.8839 4.23715 82.3525 3.99237 83.327 4.04529C83.6955 4.04529 83.8829 4.08499 84.3265 4.08499C84.0391 4.99797 83.783 5.75878 83.5269 6.55929C82.7273 8.98067 81.9527 11.4087 81.1281 13.8367C80.3847 16 79.7788 16.3573 77.5174 16.0662V14.3064C77.7254 14.3222 77.9341 14.3222 78.1421 14.3064C78.5124 14.2945 78.8509 14.0813 79.0376 13.7424C79.2243 13.4034 79.2329 12.9865 79.0604 12.6392C78.2108 9.99289 77.3487 7.34657 76.4867 4.70026C76.4367 4.54809 76.2993 4.03857 76.2993 4.03857C76.2993 4.03857 77.1988 4.03868 78.3795 4.03868C78.5481 4.03868 78.7668 4.44224 78.8417 4.70026C79.2853 6.2285 79.7038 7.76998 80.1286 9.33131C80.1848 9.54963 80.3097 9.7878 80.4284 10.2244Z" fill="#333333"/>
<path fill-rule="evenodd" clip-rule="evenodd" d="M5.63224 12.1153H3.27924V2.80385H0.0407715V0.807617H1.00055H7.57655C8.30722 0.807617 8.81497 2.43036 8.8707 2.73946H5.63224V12.1153Z" fill="#333333"/>
<path fill-rule="evenodd" clip-rule="evenodd" d="M49.8095 7.26929C49.7459 7.60707 49.7204 7.79472 49.6759 7.97487C49.0396 10.0316 49.415 9.64875 47.6463 9.68629C46.7619 9.68629 45.8775 9.68629 44.9932 9.68629C44.9932 7.68213 45.3495 7.26929 46.8446 7.26929H49.8095Z" fill="#333333"/>
<path fill-rule="evenodd" clip-rule="evenodd" d="M93.9591 12.1155H92.0511V6.82822L91.8535 6.79094C91.5078 7.82852 91.0879 8.84745 90.8224 9.89745C90.5939 10.7983 89.9702 10.5747 89.3775 10.6306C89.1372 10.6894 88.8834 10.6403 88.6819 10.496C88.4804 10.3517 88.3512 10.1265 88.3278 9.87881C88.02 8.80449 87.6063 7.76381 87.0928 6.7723V12.1155H85.1292V4.03857H87.877C88.0869 4.03857 88.2784 4.43621 88.371 4.65988C88.797 5.80307 89.1613 6.95869 89.6059 8.31313C90.0505 6.97112 90.4519 5.82792 90.81 4.6723C90.8793 4.27502 91.2457 4.00194 91.6436 4.051H93.9591V12.1155Z" fill="#333333"/>
<path fill-rule="evenodd" clip-rule="evenodd" d="M63.5743 10.2244C64.03 8.45803 64.5106 6.91655 64.8227 5.31553C65.0287 4.23715 65.4969 3.99237 66.4706 4.04529C66.8389 4.04529 67.0262 4.08499 67.4694 4.08499C67.1822 4.99797 66.9263 5.75878 66.6704 6.55929C65.8714 8.98067 65.0974 11.4087 64.2734 13.8367C63.5306 16 62.9252 16.3573 60.6656 16.0662V14.3064C60.8734 14.3223 61.082 14.3223 61.2898 14.3064C61.658 14.2934 61.9942 14.0811 62.1804 13.7442C62.3666 13.4072 62.3768 12.9926 62.2073 12.6458C61.3584 9.99951 60.497 7.35319 59.6356 4.70687C59.5857 4.55471 59.4421 4.04529 59.4421 4.04529C59.4421 4.04529 60.341 4.04529 61.5207 4.04529C61.6893 4.04529 61.9077 4.44886 61.9826 4.70687C62.4258 6.23512 62.844 7.7766 63.2685 9.33793C63.3309 9.54963 63.4245 9.7878 63.5743 10.2244Z" fill="#333333"/>
<path fill-rule="evenodd" clip-rule="evenodd" d="M16.8979 4.34309H18.9664C19.0049 4.61317 19.0435 4.87007 19.0756 5.14015C19.9722 4.14447 21.3571 3.78457 22.608 4.22212C23.8588 4.65967 24.7405 5.81239 24.8569 7.16242C24.9811 8.27829 24.9356 9.40717 24.722 10.5087C24.4701 11.7308 23.5802 12.7101 22.4091 13.0538C21.2381 13.3975 19.9777 13.0493 19.1334 12.1489V16.154H16.8979V4.34309ZM22.782 8.69724C22.7615 8.27589 22.6947 7.85827 22.5829 7.45226C22.4315 6.63735 21.7064 6.06977 20.8999 6.13481C20.4885 6.08901 20.0767 6.2169 19.7592 6.48904C19.4417 6.76118 19.2459 7.15412 19.2169 7.57741C19.0767 8.44718 19.1384 9.33857 19.3968 10.1794C19.7261 10.7343 20.2892 11.0997 20.9192 11.1674C21.533 11.1452 22.094 10.8054 22.4095 10.265C22.6402 9.77523 22.7671 9.24093 22.782 8.69724Z" fill="#333333"/>
<path fill-rule="evenodd" clip-rule="evenodd" d="M29.0573 10.2244C29.513 8.45803 29.9936 6.91655 30.3057 5.31553C30.5117 4.23715 30.9798 3.99237 31.9536 4.04529C32.3219 4.04529 32.5091 4.08499 32.9523 4.08499C32.6652 4.99797 32.4093 5.75878 32.1533 6.55929C31.3544 8.98067 30.5804 11.4087 29.7564 13.8367C29.0136 16 28.4081 16.3573 26.1485 16.0662V14.2998C26.3563 14.3157 26.5649 14.3157 26.7727 14.2998C27.141 14.2867 27.4772 14.0745 27.6634 13.7375C27.8496 13.4006 27.8597 12.986 27.6903 12.6392C26.8414 9.99289 25.98 7.34657 25.1186 4.70026C25.0687 4.54809 24.9251 4.03857 24.9251 4.03857C24.9251 4.03857 25.824 4.03868 27.0037 4.03868C27.1722 4.03868 27.3907 4.44224 27.4656 4.70026C27.9088 6.2285 28.327 7.76998 28.7515 9.33131C28.8139 9.54963 28.9075 9.7878 29.0573 10.2244Z" fill="#333333"/>
<path fill-rule="evenodd" clip-rule="evenodd" d="M42.585 12.1031H40.6743V6.82822L40.4765 6.79094C40.1302 7.82852 39.7097 8.84745 39.4438 9.89745C39.215 10.7983 38.5905 10.5747 37.9969 10.6306C37.7563 10.6894 37.5021 10.6403 37.3004 10.496C37.0986 10.3517 36.9692 10.1265 36.9457 9.87881C36.6375 8.80449 36.2233 7.76381 35.709 6.7723V12.1155H33.7551V4.03857H36.5067C36.7169 4.03857 36.9086 4.43621 37.0014 4.65988C37.428 5.80307 37.7928 6.95869 38.2381 8.31313C38.6833 6.97112 39.0852 5.82792 39.4438 4.6723C39.5132 4.27502 39.8801 4.00194 40.2786 4.051H42.5726L42.585 12.1031Z" fill="#333333"/>
<path fill-rule="evenodd" clip-rule="evenodd" d="M12.1972 10.2244C12.6532 8.45803 13.1342 6.91655 13.4465 5.31553C13.6527 4.23715 14.1212 3.99237 15.0957 4.04529C15.4643 4.04529 15.6517 4.08499 16.0952 4.08499C15.8078 4.99797 15.5517 5.75878 15.2956 6.55929C14.496 8.98067 13.7214 11.4087 12.8968 13.8367C12.1534 16 11.5475 16.3573 9.28613 16.0662V14.2998C9.49409 14.3155 9.70285 14.3155 9.91082 14.2998C10.2793 14.2867 10.6158 14.0745 10.8021 13.7375C10.9885 13.4006 10.9987 12.986 10.8291 12.6392C9.97953 9.99289 9.11747 7.34657 8.2554 4.70026C8.20542 4.54809 8.06799 4.03857 8.06799 4.03857C8.06799 4.03857 8.96754 4.03868 10.1482 4.03868C10.3169 4.03868 10.5355 4.44224 10.6105 4.70026C11.054 6.2285 11.4725 7.76998 11.8973 9.33131C11.9535 9.54963 12.0535 9.7878 12.1972 10.2244Z" fill="#333333"/>
</svg>
